<svg width="101" height="101" viewBox="0 0 101 101" xmlns="http://www.w3.org/2000/svg">
<path d="M15.4881 86.2598C-4.00158 66.7701 -4.00158 35.0614 15.4881 15.5716C34.9779 -3.91809 66.6866 -3.91809 86.1763 15.5716C105.666 35.0614 105.666 66.7701 86.1763 86.2598C66.6866 105.75 34.9779 105.75 15.4881 86.2598ZM83.8207 17.9273C65.6296 -0.263762 36.0348 -0.263762 17.8485 17.9273C-0.342528 36.1183 -0.342528 65.7131 17.8485 83.8995C36.0396 102.09 65.6344 102.09 83.8207 83.8995C102.012 65.7084 102.012 36.1136 83.8207 17.9273Z" fill="white"/>
<path d="M84.3638 40.313C84.1884 40.1376 84.0462 39.9149 83.9657 39.6684C82.2357 34.5495 79.4108 30.0136 75.5716 26.1744C71.7372 22.34 67.1965 19.5151 62.0776 17.7804C61.3998 17.5481 60.9448 16.9178 60.9448 16.2021V4.05417C60.9448 3.54228 61.1818 3.05882 61.5847 2.74126C61.9923 2.4237 62.5184 2.31469 63.0113 2.43792C71.7609 4.62767 79.771 9.16832 86.1696 15.5717C92.5682 21.975 97.1089 29.9804 99.2987 38.7299C99.4219 39.2276 99.3081 39.7537 98.9953 40.1613C98.6777 40.569 98.1943 40.8012 97.6824 40.8012H85.5345C85.0795 40.8012 84.6624 40.6164 84.3543 40.3083L84.3638 40.313ZM77.9272 23.8188C81.8422 27.7338 84.7951 32.3218 86.7194 37.4692H95.5069C93.2982 30.1131 89.2836 23.3922 83.8187 17.9273C78.3538 12.4624 71.6329 8.44789 64.2816 6.24392V15.0314C69.4289 16.9509 74.017 19.9038 77.932 23.8235L77.9272 23.8188Z" fill="white"/>
<path d="M15.4867 86.2597C9.0881 79.8611 4.5427 71.851 2.35295 63.1015C2.22971 62.6038 2.34347 62.0777 2.6563 61.6748C2.97386 61.2672 3.45729 61.0349 3.96918 61.0349H16.1171C16.8328 61.0349 17.4679 61.4899 17.6954 62.1677C19.4254 67.2866 22.2503 71.8225 26.0894 75.6617C29.9239 79.4961 34.4646 82.321 39.5835 84.0557C40.2612 84.2832 40.7162 84.9184 40.7162 85.6341V97.782C40.7162 98.2939 40.4792 98.7773 40.0764 99.0949C39.6687 99.4124 39.1426 99.5214 38.645 99.3982C29.8954 97.2084 21.8901 92.6678 15.4867 86.2692V86.2597ZM6.15421 64.3622C8.36292 71.7182 12.3774 78.4392 17.8423 83.9041C23.3072 89.3689 30.0282 93.3835 37.3842 95.5922V86.8048C32.2369 84.8852 27.6488 81.9323 23.7338 78.0173C19.8188 74.1023 16.866 69.5143 14.9416 64.3669H6.15421V64.3622Z" fill="white"/>
<path d="M61.433 98.9528C61.1202 98.64 60.9448 98.2182 60.9448 97.7727V85.6248C60.9448 84.9091 61.3998 84.274 62.0776 84.0465C67.1965 82.3165 71.7324 79.4916 75.5716 75.6524C79.4108 71.8132 82.2309 67.2773 83.9656 62.1584C84.1931 61.4806 84.8283 61.0256 85.544 61.0256H97.6919C98.2038 61.0256 98.6872 61.2626 99.0048 61.6655C99.3223 62.0684 99.4314 62.5992 99.3081 63.0921C97.1136 71.8417 92.573 79.847 86.1743 86.2504C79.7757 92.6538 71.7656 97.1944 63.0161 99.3842C62.5184 99.5074 61.9923 99.3936 61.5894 99.0808C61.5373 99.0334 61.4852 98.9908 61.4378 98.9434L61.433 98.9528ZM64.2769 86.8002V95.5877C71.6329 93.3789 78.3538 89.3644 83.8187 83.8995C89.2836 78.4346 93.2934 71.7137 95.5069 64.3576H86.7194C84.7998 69.505 81.847 74.0883 77.9272 78.008C74.0122 81.923 69.4242 84.8806 64.2769 86.8002Z" fill="white"/>
<path d="M2.78974 40.313C2.74234 40.2656 2.69496 40.2135 2.65704 40.1613C2.33948 39.7585 2.23046 39.2276 2.35369 38.7299C4.54344 29.9804 9.0841 21.9703 15.4875 15.5717C21.8908 9.17305 29.8962 4.62766 38.6457 2.43791C39.1434 2.31468 39.6695 2.42842 40.0724 2.74124C40.4752 3.05881 40.7123 3.54227 40.7123 4.05416V16.2021C40.7123 16.9178 40.2572 17.5529 39.5795 17.7804C34.4606 19.5104 29.9246 22.3352 26.0854 26.1744C22.251 30.0088 19.4262 34.5495 17.6914 39.6684C17.4639 40.3462 16.8288 40.8012 16.1131 40.8012H3.96521C3.51967 40.8012 3.09307 40.6258 2.78499 40.3177L2.78974 40.313ZM37.3802 6.2439C30.0242 8.45261 23.3032 12.4672 17.8383 17.9321C12.3734 23.3969 8.36366 30.1179 6.15021 37.4739H14.9376C16.8572 32.3266 19.8101 27.7433 23.7298 23.8235C27.6448 19.9085 32.2329 16.9557 37.3802 15.0313V6.2439Z" fill="white"/>
<path d="M77.9314 23.8188C62.9918 8.87918 38.6771 8.87444 23.7375 23.8188C8.79315 38.7631 8.79789 63.0731 23.7375 78.0127C38.6771 92.9523 62.9871 92.9571 77.9314 78.0127C92.8757 63.0684 92.871 38.7584 77.9314 23.8188Z" fill="white"/>
<path d="M64.6503 64.5933L37.1226 64.7759C35.963 64.7836 35.0292 65.7298 35.0369 66.8894L35.0434 67.8705C35.0511 69.0301 35.9974 69.964 37.157 69.9563L64.6846 69.7737C65.8442 69.766 66.7781 68.8197 66.7704 67.6601L66.7639 66.679C66.7562 65.5194 65.8099 64.5856 64.6503 64.5933Z" fill="#110A1D"/>
<path d="M40.8732 47.9773C40.5746 47.9773 40.2713 47.9109 39.9964 47.7782L37.8492 46.7402C36.9155 46.2852 36.4889 45.1809 36.8776 44.2187L37.8635 41.7635C38.1668 41.0147 38.8825 40.5265 39.6883 40.5217C40.0343 40.5217 40.3755 40.607 40.6788 40.7824L43.2383 42.2422C43.717 42.5124 44.063 42.9816 44.1862 43.522C44.3095 44.0623 44.2005 44.6311 43.8876 45.0861L42.4847 47.1194C42.1197 47.6503 41.513 47.9726 40.8684 47.9726L40.8732 47.9773Z" fill="#110A1D"/>
<path d="M60.6919 47.8446C60.0473 47.8446 59.4359 47.5365 59.0663 47.0104L57.6775 45.0529C57.3552 44.6026 57.2415 44.0338 57.3552 43.4935C57.469 42.9532 57.8102 42.4792 58.2889 42.1996L60.9289 40.6497C61.2275 40.4743 61.5688 40.3795 61.9148 40.3748C62.7206 40.3701 63.4458 40.8488 63.7586 41.5929L64.7539 43.977C65.152 44.9344 64.7397 46.0482 63.8155 46.5127L61.5688 47.636C61.2987 47.7687 60.9953 47.8446 60.6967 47.8446H60.6919Z" fill="#110A1D"/>
<path d="M38.7106 62.9357C37.502 62.9452 36.4166 62.1868 36.0043 61.0493L31.4115 48.4085C31.1176 48.5506 30.8048 48.6597 30.4872 48.7402C30.1128 48.835 29.7336 48.8824 29.3497 48.8824C29.1269 48.8824 28.9089 48.8729 28.6956 48.8445C26.302 48.5412 24.4868 46.4889 24.4725 44.0716C24.4536 41.3984 26.6148 39.2087 29.288 39.1897C31.9612 39.1707 34.151 41.3321 34.1652 44.0053C34.1652 44.6214 34.0609 45.2139 33.8429 45.7684C33.7244 46.0718 33.5775 46.3609 33.4069 46.6358L42.1422 50.8636L48.8252 41.1804C48.5456 41.0619 48.2754 40.915 48.0194 40.7396C47.536 40.4125 47.1141 40.0049 46.7729 39.5262C46.1946 38.711 45.8818 37.7488 45.8771 36.7535C45.8581 34.0803 48.0194 31.8905 50.6926 31.8716C50.8111 31.8716 50.9344 31.8716 51.0529 31.8811C53.4464 32.0422 55.3802 33.9618 55.5556 36.3554C55.6362 37.4881 55.3376 38.5735 54.693 39.4978C54.3517 39.9812 53.9346 40.3936 53.4559 40.7206C53.2047 40.896 52.9345 41.0429 52.6549 41.1614L59.4564 50.7451L68.0495 46.4462C67.8883 46.1381 67.7604 45.8158 67.6656 45.4793C67.5518 45.0717 67.4902 44.6451 67.4902 44.2138C67.4902 44.0195 67.4997 43.8252 67.5186 43.6356C67.7935 41.1994 69.8506 39.3509 72.301 39.3366C74.9742 39.3177 77.164 41.479 77.1782 44.1522C77.1971 46.7022 75.2159 48.8445 72.6707 49.0199L72.3674 49.0294C71.8744 49.0294 71.391 48.963 70.9218 48.8208C70.6184 48.726 70.3245 48.6075 70.0496 48.4559L65.7365 60.8502C65.3431 61.9925 64.2624 62.7603 63.0538 62.7698L38.7106 62.9309V62.9357Z" fill="#110A1D"/>
</svg>
